<svg preserveAspectRatio="none" width="100%" height="100%" overflow="visible" style="display: block;" viewBox="0 0 34 24" fill="none" xmlns="http://www.w3.org/2000/svg">
<g id="Frame 2131328945">
<g clip-path="url(#clip0_1708_25278)">
<path id="Vector" d="M34.7945 2.42616C34.7945 1.09415 33.6997 0 32.3669 0H0C2.30853 6.11298 6.85417 10.9891 13.8036 12.9633C18.8014 14.3905 27.7975 14.7711 34.7945 8.82456V2.42616ZM14.9221 12.2498C13.0182 12.2498 11.4712 10.7037 11.4712 8.8008C11.4712 6.89791 13.0182 5.35184 14.9221 5.35184C16.826 5.35184 18.3729 6.89791 18.3729 8.8008C18.3729 10.7037 16.826 12.2498 14.9221 12.2498Z" fill="var(--fill-0, #FF6E00)"/>
<path id="Vector_2" d="M34.7945 11.4884V23.9998H17.0403C18.6586 17.7916 17.3735 22.5489 18.6825 17.6252C23.466 17.8154 29.3444 16.2932 34.7945 11.4884ZM0 4.44775V23.9998H6.33059C6.59238 21.5735 7.02077 18.196 6.75898 14.6043C3.64128 11.7263 1.14237 7.65886 0 4.44775Z" fill="var(--fill-0, #009AA6)"/>
</g>
</g>
<defs>
<clipPath id="clip0_1708_25278">
<rect width="34" height="24" rx="4" fill="white"/>
</clipPath>
</defs>
</svg>
