<svg preserveAspectRatio="none" width="100%" height="100%" overflow="visible" style="display: block;" viewBox="0 0 24 24" fill="none" xmlns="http://www.w3.org/2000/svg">
<g id="Frame">
<path id="Vector" d="M2 9.5C2.00002 8.3872 2.33759 7.30058 2.96813 6.38366C3.59867 5.46674 4.49252 4.76266 5.53161 4.3644C6.5707 3.96614 7.70616 3.89244 8.78801 4.15304C9.86987 4.41364 10.8472 4.99628 11.591 5.824C11.6434 5.88001 11.7067 5.92467 11.7771 5.9552C11.8474 5.98573 11.9233 6.00148 12 6.00148C12.0767 6.00148 12.1526 5.98573 12.2229 5.9552C12.2933 5.92467 12.3566 5.88001 12.409 5.824C13.1504 4.9909 14.128 4.40337 15.2116 4.1396C16.2952 3.87584 17.4335 3.94835 18.4749 4.34748C19.5163 4.74662 20.4114 5.45345 21.0411 6.3739C21.6708 7.29435 22.0053 8.38476 22 9.5C22 11.79 20.5 13.5 19 15L13.508 20.313C13.3217 20.527 13.0919 20.6989 12.834 20.8173C12.5762 20.9357 12.296 20.9978 12.0123 20.9996C11.7285 21.0014 11.4476 20.9428 11.1883 20.8277C10.9289 20.7126 10.697 20.5436 10.508 20.332L5 15C3.5 13.5 2 11.8 2 9.5Z" stroke="var(--stroke-0, #A1A1A1)" stroke-width="1.5" stroke-linecap="round" stroke-linejoin="round"/>
</g>
</svg>
